<svg xmlns="http://www.w3.org/2000/svg" viewBox="0 0 250.7 58.7"><style>.st0{fill:#44b13f}</style><path class="st0" d="M0 6.7h10.8v19.6L38.5 6.8h17.1l-34.9 26L55 58.3H37.2L10.7 39.4v19.3H0z"/><path class="st0" d="M91.9 15.1C89 12 87 12.4 87 12.4H54.2s-3.1.1-5.3 2.2c-2.2 2.1-3.1 5.2-3.1 5.2v26.8s.2 2.4 2.9 4.9C51.2 53.8 54 54 54 54h34s2 .3 4.2-2.6 2.1-4.9 2.1-4.9V20.1s.5-1.9-2.4-5zm-6.8 29.7H54.8V21.6h30.4l-.1 23.2zM97.4 0v54.4h9.8V22.2H136v32.3h9.9v-33s-.1-3-2.9-5.8-6-2.8-6-2.8h-29.5V0H97.4zm87.2 45.8v8.9h-27.4s-2.2-.4-5.1-3.6c-2.8-3.1-2.7-5.2-2.7-5.2V21.5s0-3.4 2.7-6.3c2.2-2.5 4.8-2.5 4.8-2.5h32.4s2.2.1 4.7 2.5 2.7 4.5 2.7 4.5v35h-8.9V21.4h-29.4v24.4h26.2zm15.3 8.9h10.5V22.3h28.4v32.3h11.9V22.3s0-3.2-3.2-6.8c-2.7-3-6.3-3.5-6.3-3.5h-32.4s-2.9-.5-6.2 3.3c-3 3.4-2.4 6.8-2.4 6.8l-.3 32.6z"/></svg>